# xmcd
#
# Track frame offsets:
#  150
#  13757
#  26247
#  38667
#  52175
#  66062
#  79850
#  93145
#  106677
#  120140
#  134938
#  148516
#  161231
#
# Disc length: 2330 seconds
#
# Revision: 0
# Processed by: cddbd v1.4PL0 Copyright (c) Steve Scherf et al.
# Submitted via: AltoMP3_Maker 3.0
#
DISCID=ad09180d
DTITLE=Memphis Minnie - Hoodoo Lady (1933-1937)
DYEAR=1900
DGENRE=
TTITLE0=Down In The Alley
TTITLE1=Has Anyone Seen My Man
TTITLE2=I Hate To See The Sun Go Down
TTITLE3=Ice Man (Come On Up)
TTITLE4=Hoodoo Lady
TTITLE5=I'm A Bad Luck Woman
TTITLE6=Black Cat Blues
TTITLE7=Good Morning
TTITLE8=Man, You Won't Give Me No Money
TTITLE9=Ain't No Use Tryin' To Tell On Me (I Know Something On You)
TTITLE10=My Strange Man
TTITLE11=My Baby Don't Want Me No More
TTITLE12=I'm Going Don't You Know
EXTD=
EXTT0=
EXTT1=
EXTT2=
EXTT3=
EXTT4=
EXTT5=
EXTT6=
EXTT7=
EXTT8=
EXTT9=
EXTT10=
EXTT11=
EXTT12=
PLAYORDER=
